<svg width="31" height="31" viewBox="0 0 31 31" fill="none" xmlns="http://www.w3.org/2000/svg">
<path d="M6.64286 1.9375V3.875H3.32143C1.48772 3.875 0 5.17676 0 6.78125V9.6875H31V6.78125C31 5.17676 29.5123 3.875 27.6786 3.875H24.3571V1.9375C24.3571 0.86582 23.3676 0 22.1429 0C20.9181 0 19.9286 0.86582 19.9286 1.9375V3.875H11.0714V1.9375C11.0714 0.86582 10.0819 0 8.85714 0C7.63237 0 6.64286 0.86582 6.64286 1.9375ZM31 11.625H0V28.0938C0 29.6982 1.48772 31 3.32143 31H27.6786C29.5123 31 31 29.6982 31 28.0938V11.625Z" fill="#5F5E61"/>
</svg>
