<svg width="33" height="27" viewBox="0 0 33 27" fill="none" xmlns="http://www.w3.org/2000/svg">
<g clip-path="url(#clip0_247_2709)">
<path d="M16.4938 0C17.0209 0 17.5021 0.274219 17.7313 0.711914L21.6615 8.16328L30.4386 9.35508C30.9542 9.42363 31.3839 9.75586 31.5443 10.2146C31.7047 10.6734 31.573 11.1691 31.2063 11.5066L24.8412 17.318L26.3422 25.5234C26.4282 25.998 26.2162 26.4779 25.7865 26.7627C25.3568 27.0475 24.7954 27.0791 24.337 26.8523L16.4881 22.9922L8.65057 26.8471C8.18651 27.0738 7.62505 27.0422 7.20109 26.7574C6.77714 26.4727 6.55943 25.9928 6.64537 25.5182L8.14641 17.3127L1.7813 11.5066C1.40891 11.1691 1.28287 10.6682 1.44328 10.2146C1.6037 9.76113 2.03339 9.42891 2.54901 9.35508L11.3261 8.16328L15.2563 0.711914C15.4912 0.274219 15.9667 0 16.4938 0ZM16.4938 4.16602L13.486 9.87188C13.2855 10.2463 12.9016 10.51 12.449 10.5732L5.67141 11.4908L10.5928 15.9785C10.9079 16.2686 11.0568 16.6799 10.9823 17.0859L9.81932 23.3982L15.8464 20.4346C16.2532 20.2342 16.7402 20.2342 17.1412 20.4346L23.1683 23.3982L22.011 17.0912C21.9365 16.6852 22.0797 16.2738 22.4006 15.9838L27.3219 11.4961L20.5443 10.5732C20.0974 10.51 19.7079 10.2516 19.5073 9.87188L16.4938 4.16602Z" fill="#D5D5D5"/>
</g>
<defs>
<clipPath id="clip0_247_2709">
<rect width="33" height="27" fill="white"/>
</clipPath>
</defs>
</svg>
