<svg width="33" height="27" viewBox="0 0 33 27" fill="none" xmlns="http://www.w3.org/2000/svg">
<g clip-path="url(#clip0_247_2607)">
<path d="M18.1553 0.949219C17.8517 0.369141 17.21 0 16.5053 0C15.8006 0 15.1647 0.369141 14.8553 0.949219L11.1715 7.92598L2.94438 9.04394C2.25688 9.13887 1.68396 9.58184 1.47198 10.1883C1.26 10.7947 1.43188 11.4645 1.92459 11.9127L7.89438 17.3496L6.485 25.033C6.37042 25.6658 6.65688 26.3092 7.22407 26.6836C7.79125 27.058 8.54178 27.1055 9.16053 26.8049L16.511 23.1926L23.8616 26.8049C24.4803 27.1055 25.2308 27.0633 25.798 26.6836C26.3652 26.3039 26.6517 25.6658 26.5371 25.033L25.122 17.3496L31.0918 11.9127C31.5845 11.4645 31.7621 10.7947 31.5444 10.1883C31.3267 9.58184 30.7595 9.13887 30.072 9.04394L21.8392 7.92598L18.1553 0.949219Z" fill="#FFBD13"/>
</g>
<defs>
<clipPath id="clip0_247_2607">
<rect width="33" height="27" fill="white"/>
</clipPath>
</defs>
</svg>
