<svg width="28" height="34" viewBox="0 0 28 34" fill="none" xmlns="http://www.w3.org/2000/svg">
<path d="M14 17C16.1217 17 18.1566 16.1045 19.6569 14.5104C21.1571 12.9163 22 10.7543 22 8.5C22 6.24566 21.1571 4.08365 19.6569 2.48959C18.1566 0.895533 16.1217 0 14 0C11.8783 0 9.84344 0.895533 8.34315 2.48959C6.84285 4.08365 6 6.24566 6 8.5C6 10.7543 6.84285 12.9163 8.34315 14.5104C9.84344 16.1045 11.8783 17 14 17ZM11.1438 20.1875C4.9875 20.1875 0 25.4867 0 32.0277C0 33.1168 0.83125 34 1.85625 34H26.1437C27.1687 34 28 33.1168 28 32.0277C28 25.4867 23.0125 20.1875 16.8563 20.1875H11.1438Z" fill="#5F5E61"/>
</svg>
