<svg width="35" height="35" viewBox="0 0 35 35" fill="none" xmlns="http://www.w3.org/2000/svg">
<g clip-path="url(#clip0_16_139)">
<path d="M17.5 0C7.83563 0 0 7.83563 0 17.5C0 27.1644 7.83563 35 17.5 35C27.1644 35 35 27.1644 35 17.5C34.9942 7.83708 27.1629 0.00583333 17.5 0ZM17.5 33.3667C8.73688 33.3667 1.63333 26.2631 1.63333 17.5C1.63333 8.73688 8.73688 1.63333 17.5 1.63333C26.2631 1.63333 33.3667 8.73688 33.3667 17.5C33.3579 26.2588 26.2588 33.3579 17.5 33.3667ZM24.7246 6.57125H23.5273V12.5621H11.5106V6.57125H10.2754C8.46735 7.76411 6.98348 9.38693 5.9568 11.2943C4.93012 13.2016 4.39269 15.3339 4.39269 17.5C4.39269 19.6661 4.93012 21.7984 5.9568 23.7057C6.98348 25.6131 8.46735 27.2359 10.2754 28.4287H11.5092V22.4379H23.5258V28.4287H24.7246C26.5327 27.2359 28.0165 25.6131 29.0432 23.7057C30.0699 21.7984 30.6073 19.6661 30.6073 17.5C30.6073 15.3339 30.0699 13.2016 29.0432 11.2943C28.0165 9.38693 26.5327 7.76411 24.7246 6.57125ZM9.83938 26.0692C8.62889 24.9937 7.65998 23.6741 6.99647 22.197C6.33296 20.72 5.98991 19.1192 5.98991 17.5C5.98991 15.8808 6.33296 14.28 6.99647 12.803C7.65998 11.3259 8.62889 10.0063 9.83938 8.93083V26.0692ZM23.5273 20.7681H11.5106V14.1954H23.5273V20.7681ZM25.1606 26.0327V8.93083C26.3606 10.0088 27.3202 11.3273 27.9772 12.8005C28.6341 14.2737 28.9736 15.8687 28.9736 17.4818C28.9736 19.0948 28.6341 20.6898 27.9772 22.163C27.3202 23.6363 26.3606 24.9547 25.1606 26.0327Z" fill="#F8F8F8"/>
</g>
<defs>
<clipPath id="clip0_16_139">
<rect width="35" height="35" fill="white"/>
</clipPath>
</defs>
</svg>
