<svg width="1172" height="185" viewBox="0 0 1172 185" fill="none" xmlns="http://www.w3.org/2000/svg">
<path d="M0.877841 31.8757V0.181813H150.203V31.8757H94.5391V182H56.5419V31.8757H0.877841ZM159.924 182V45.6364H196.59V69.429H198.01C200.496 60.9654 204.669 54.5734 210.528 50.2528C216.387 45.8731 223.135 43.6832 230.77 43.6832C232.663 43.6832 234.705 43.8016 236.895 44.0383C239.085 44.2751 241.009 44.6006 242.666 45.0149V78.5731C240.89 78.0405 238.434 77.567 235.297 77.1527C232.16 76.7384 229.29 76.5312 226.686 76.5312C221.122 76.5312 216.151 77.7446 211.771 80.1712C207.45 82.5386 204.018 85.853 201.473 90.1143C198.987 94.3757 197.744 99.2881 197.744 104.852V182H159.924ZM297.198 184.575C288.498 184.575 280.744 183.065 273.938 180.047C267.132 176.969 261.746 172.442 257.78 166.464C253.874 160.427 251.921 152.91 251.921 143.914C251.921 136.338 253.312 129.976 256.094 124.827C258.875 119.678 262.663 115.535 267.457 112.398C272.251 109.261 277.696 106.893 283.792 105.295C289.948 103.697 296.399 102.573 303.146 101.922C311.077 101.093 317.469 100.324 322.322 99.6136C327.175 98.8442 330.697 97.7197 332.887 96.2401C335.077 94.7604 336.172 92.5705 336.172 89.6705V89.1378C336.172 83.5152 334.396 79.165 330.845 76.0874C327.353 73.0097 322.381 71.4709 315.93 71.4709C309.124 71.4709 303.708 72.9801 299.684 75.9986C295.659 78.9579 292.996 82.6866 291.694 87.1847L256.715 84.3438C258.491 76.0578 261.983 68.8963 267.191 62.8594C272.399 56.7633 279.117 52.0876 287.344 48.8324C295.63 45.518 305.218 43.8608 316.108 43.8608C323.684 43.8608 330.934 44.7486 337.858 46.5241C344.842 48.2997 351.027 51.0518 356.413 54.7805C361.858 58.5092 366.149 63.3033 369.286 69.1626C372.423 74.9628 373.991 81.9171 373.991 90.0256V182H338.125V163.09H337.059C334.87 167.352 331.94 171.11 328.27 174.365C324.601 177.561 320.192 180.076 315.042 181.911C309.893 183.687 303.945 184.575 297.198 184.575ZM308.029 158.474C313.592 158.474 318.505 157.379 322.766 155.189C327.028 152.94 330.372 149.921 332.798 146.134C335.225 142.346 336.438 138.055 336.438 133.261V118.79C335.254 119.559 333.627 120.269 331.555 120.92C329.543 121.512 327.264 122.075 324.719 122.607C322.174 123.081 319.629 123.525 317.084 123.939C314.539 124.294 312.231 124.62 310.16 124.915C305.721 125.567 301.844 126.602 298.53 128.023C295.215 129.443 292.641 131.367 290.806 133.793C288.971 136.161 288.054 139.12 288.054 142.671C288.054 147.82 289.918 151.756 293.647 154.479C297.435 157.142 302.229 158.474 308.029 158.474ZM464.945 184.663C450.977 184.663 438.962 181.704 428.901 175.786C418.898 169.808 411.204 161.522 405.818 150.928C400.492 140.333 397.828 128.141 397.828 114.351C397.828 100.383 400.521 88.1316 405.907 77.5966C411.352 67.0024 419.076 58.746 429.078 52.8274C439.081 46.8497 450.977 43.8608 464.767 43.8608C476.664 43.8608 487.08 46.0211 496.017 50.3416C504.954 54.6622 512.027 60.7287 517.235 68.5412C522.444 76.3537 525.314 85.5275 525.847 96.0625H490.158C489.152 89.2562 486.488 83.7815 482.168 79.6385C477.906 75.4363 472.313 73.3352 465.389 73.3352C459.529 73.3352 454.41 74.9332 450.03 78.1293C445.709 81.2661 442.336 85.853 439.909 91.8899C437.483 97.9268 436.269 105.236 436.269 113.818C436.269 122.518 437.453 129.917 439.82 136.013C442.247 142.109 445.65 146.755 450.03 149.951C454.41 153.147 459.529 154.745 465.389 154.745C469.709 154.745 473.586 153.857 477.019 152.082C480.511 150.306 483.381 147.732 485.63 144.358C487.938 140.925 489.448 136.812 490.158 132.018H525.847C525.255 142.434 522.414 151.608 517.324 159.539C512.293 167.411 505.339 173.566 496.461 178.005C487.583 182.444 477.078 184.663 464.945 184.663ZM584.33 142.76L584.418 97.3942H589.923L633.602 45.6364H677.014L618.332 114.173H609.365L584.33 142.76ZM550.061 182V0.181813H587.881V182H550.061ZM635.288 182L595.161 122.607L620.374 95.8849L679.589 182H635.288ZM696.279 182V0.181813H734.72V75.1996H812.756V0.181813H851.109V182H812.756V106.893H734.72V182H696.279ZM969.539 123.939V45.6364H1007.36V182H971.048V157.231H969.628C966.55 165.221 961.431 171.643 954.269 176.496C947.167 181.349 938.496 183.776 928.257 183.776C919.143 183.776 911.123 181.704 904.198 177.561C897.273 173.418 891.858 167.529 887.952 159.894C884.105 152.259 882.152 143.115 882.092 132.462V45.6364H919.912V125.714C919.971 133.764 922.131 140.126 926.393 144.802C930.654 149.478 936.366 151.815 943.527 151.815C948.084 151.815 952.346 150.78 956.311 148.708C960.277 146.577 963.473 143.441 965.899 139.298C968.385 135.155 969.598 130.035 969.539 123.939ZM1038.32 182V0.181813H1076.14V68.5412H1077.29C1078.95 64.8717 1081.35 61.143 1084.48 57.3551C1087.68 53.508 1091.82 50.312 1096.91 47.767C1102.06 45.1629 1108.46 43.8608 1116.09 43.8608C1126.03 43.8608 1135.21 46.465 1143.61 51.6733C1152.02 56.8224 1158.73 64.6053 1163.76 75.022C1168.79 85.3795 1171.31 98.3707 1171.31 113.996C1171.31 129.206 1168.85 142.05 1163.94 152.526C1159.09 162.942 1152.46 170.844 1144.06 176.229C1135.71 181.556 1126.36 184.219 1116 184.219C1108.66 184.219 1102.42 183.006 1097.27 180.58C1092.18 178.153 1088.01 175.105 1084.75 171.435C1081.5 167.707 1079.01 163.948 1077.29 160.161H1075.61V182H1038.32ZM1075.34 113.818C1075.34 121.927 1076.47 128.999 1078.71 135.036C1080.96 141.073 1084.22 145.778 1088.48 149.152C1092.74 152.466 1097.92 154.124 1104.02 154.124C1110.17 154.124 1115.38 152.437 1119.64 149.063C1123.9 145.63 1127.13 140.896 1129.32 134.859C1131.57 128.763 1132.69 121.749 1132.69 113.818C1132.69 105.946 1131.6 99.0218 1129.41 93.044C1127.22 87.0663 1123.99 82.3906 1119.73 79.017C1115.47 75.6435 1110.23 73.9567 1104.02 73.9567C1097.86 73.9567 1092.65 75.5843 1088.39 78.8395C1084.19 82.0947 1080.96 86.7112 1078.71 92.6889C1076.47 98.6667 1075.34 105.71 1075.34 113.818Z" fill="url(#paint0_linear_647_2961)"/>
<path d="M0.877841 31.8757V0.181813H150.203V31.8757H94.5391V182H56.5419V31.8757H0.877841ZM159.924 182V45.6364H196.59V69.429H198.01C200.496 60.9654 204.669 54.5734 210.528 50.2528C216.387 45.8731 223.135 43.6832 230.77 43.6832C232.663 43.6832 234.705 43.8016 236.895 44.0383C239.085 44.2751 241.009 44.6006 242.666 45.0149V78.5731C240.89 78.0405 238.434 77.567 235.297 77.1527C232.16 76.7384 229.29 76.5312 226.686 76.5312C221.122 76.5312 216.151 77.7446 211.771 80.1712C207.45 82.5386 204.018 85.853 201.473 90.1143C198.987 94.3757 197.744 99.2881 197.744 104.852V182H159.924ZM297.198 184.575C288.498 184.575 280.744 183.065 273.938 180.047C267.132 176.969 261.746 172.442 257.78 166.464C253.874 160.427 251.921 152.91 251.921 143.914C251.921 136.338 253.312 129.976 256.094 124.827C258.875 119.678 262.663 115.535 267.457 112.398C272.251 109.261 277.696 106.893 283.792 105.295C289.948 103.697 296.399 102.573 303.146 101.922C311.077 101.093 317.469 100.324 322.322 99.6136C327.175 98.8442 330.697 97.7197 332.887 96.2401C335.077 94.7604 336.172 92.5705 336.172 89.6705V89.1378C336.172 83.5152 334.396 79.165 330.845 76.0874C327.353 73.0097 322.381 71.4709 315.93 71.4709C309.124 71.4709 303.708 72.9801 299.684 75.9986C295.659 78.9579 292.996 82.6866 291.694 87.1847L256.715 84.3438C258.491 76.0578 261.983 68.8963 267.191 62.8594C272.399 56.7633 279.117 52.0876 287.344 48.8324C295.63 45.518 305.218 43.8608 316.108 43.8608C323.684 43.8608 330.934 44.7486 337.858 46.5241C344.842 48.2997 351.027 51.0518 356.413 54.7805C361.858 58.5092 366.149 63.3033 369.286 69.1626C372.423 74.9628 373.991 81.9171 373.991 90.0256V182H338.125V163.09H337.059C334.87 167.352 331.94 171.11 328.27 174.365C324.601 177.561 320.192 180.076 315.042 181.911C309.893 183.687 303.945 184.575 297.198 184.575ZM308.029 158.474C313.592 158.474 318.505 157.379 322.766 155.189C327.028 152.94 330.372 149.921 332.798 146.134C335.225 142.346 336.438 138.055 336.438 133.261V118.79C335.254 119.559 333.627 120.269 331.555 120.92C329.543 121.512 327.264 122.075 324.719 122.607C322.174 123.081 319.629 123.525 317.084 123.939C314.539 124.294 312.231 124.62 310.16 124.915C305.721 125.567 301.844 126.602 298.53 128.023C295.215 129.443 292.641 131.367 290.806 133.793C288.971 136.161 288.054 139.12 288.054 142.671C288.054 147.82 289.918 151.756 293.647 154.479C297.435 157.142 302.229 158.474 308.029 158.474ZM464.945 184.663C450.977 184.663 438.962 181.704 428.901 175.786C418.898 169.808 411.204 161.522 405.818 150.928C400.492 140.333 397.828 128.141 397.828 114.351C397.828 100.383 400.521 88.1316 405.907 77.5966C411.352 67.0024 419.076 58.746 429.078 52.8274C439.081 46.8497 450.977 43.8608 464.767 43.8608C476.664 43.8608 487.08 46.0211 496.017 50.3416C504.954 54.6622 512.027 60.7287 517.235 68.5412C522.444 76.3537 525.314 85.5275 525.847 96.0625H490.158C489.152 89.2562 486.488 83.7815 482.168 79.6385C477.906 75.4363 472.313 73.3352 465.389 73.3352C459.529 73.3352 454.41 74.9332 450.03 78.1293C445.709 81.2661 442.336 85.853 439.909 91.8899C437.483 97.9268 436.269 105.236 436.269 113.818C436.269 122.518 437.453 129.917 439.82 136.013C442.247 142.109 445.65 146.755 450.03 149.951C454.41 153.147 459.529 154.745 465.389 154.745C469.709 154.745 473.586 153.857 477.019 152.082C480.511 150.306 483.381 147.732 485.63 144.358C487.938 140.925 489.448 136.812 490.158 132.018H525.847C525.255 142.434 522.414 151.608 517.324 159.539C512.293 167.411 505.339 173.566 496.461 178.005C487.583 182.444 477.078 184.663 464.945 184.663ZM584.33 142.76L584.418 97.3942H589.923L633.602 45.6364H677.014L618.332 114.173H609.365L584.33 142.76ZM550.061 182V0.181813H587.881V182H550.061ZM635.288 182L595.161 122.607L620.374 95.8849L679.589 182H635.288ZM696.279 182V0.181813H734.72V75.1996H812.756V0.181813H851.109V182H812.756V106.893H734.72V182H696.279ZM969.539 123.939V45.6364H1007.36V182H971.048V157.231H969.628C966.55 165.221 961.431 171.643 954.269 176.496C947.167 181.349 938.496 183.776 928.257 183.776C919.143 183.776 911.123 181.704 904.198 177.561C897.273 173.418 891.858 167.529 887.952 159.894C884.105 152.259 882.152 143.115 882.092 132.462V45.6364H919.912V125.714C919.971 133.764 922.131 140.126 926.393 144.802C930.654 149.478 936.366 151.815 943.527 151.815C948.084 151.815 952.346 150.78 956.311 148.708C960.277 146.577 963.473 143.441 965.899 139.298C968.385 135.155 969.598 130.035 969.539 123.939ZM1038.32 182V0.181813H1076.14V68.5412H1077.29C1078.95 64.8717 1081.35 61.143 1084.48 57.3551C1087.68 53.508 1091.82 50.312 1096.91 47.767C1102.06 45.1629 1108.46 43.8608 1116.09 43.8608C1126.03 43.8608 1135.21 46.465 1143.61 51.6733C1152.02 56.8224 1158.73 64.6053 1163.76 75.022C1168.79 85.3795 1171.31 98.3707 1171.31 113.996C1171.31 129.206 1168.85 142.05 1163.94 152.526C1159.09 162.942 1152.46 170.844 1144.06 176.229C1135.71 181.556 1126.36 184.219 1116 184.219C1108.66 184.219 1102.42 183.006 1097.27 180.58C1092.18 178.153 1088.01 175.105 1084.75 171.435C1081.5 167.707 1079.01 163.948 1077.29 160.161H1075.61V182H1038.32ZM1075.34 113.818C1075.34 121.927 1076.47 128.999 1078.71 135.036C1080.96 141.073 1084.22 145.778 1088.48 149.152C1092.74 152.466 1097.92 154.124 1104.02 154.124C1110.17 154.124 1115.38 152.437 1119.64 149.063C1123.9 145.63 1127.13 140.896 1129.32 134.859C1131.57 128.763 1132.69 121.749 1132.69 113.818C1132.69 105.946 1131.6 99.0218 1129.41 93.044C1127.22 87.0663 1123.99 82.3906 1119.73 79.017C1115.47 75.6435 1110.23 73.9567 1104.02 73.9567C1097.86 73.9567 1092.65 75.5843 1088.39 78.8395C1084.19 82.0947 1080.96 86.7112 1078.71 92.6889C1076.47 98.6667 1075.34 105.71 1075.34 113.818Z" fill="url(#paint1_linear_647_2961)" fill-opacity="0.22"/>
<defs>
<linearGradient id="paint0_linear_647_2961" x1="587" y1="-60" x2="581.725" y2="326.585" gradientUnits="userSpaceOnUse">
<stop stop-color="#D265D0"/>
<stop offset="1" stop-color="#3A2A98"/>
</linearGradient>
<linearGradient id="paint1_linear_647_2961" x1="79.9565" y1="96.7241" x2="1109.57" y2="96.7241" gradientUnits="userSpaceOnUse">
<stop stop-color="#0AD3C4"/>
<stop offset="1" stop-color="#A7F1E3"/>
</linearGradient>
</defs>
</svg>
